<?xml version="1.0" standalone="no"?>
<!DOCTYPE svg PUBLIC "-//W3C//DTD SVG 20010904//EN"
 "http://www.w3.org/TR/2001/REC-SVG-20010904/DTD/svg10.dtd">
<svg version="1.0" xmlns="http://www.w3.org/2000/svg"
 width="958.000000pt" height="1280.000000pt" viewBox="0 0 958.000000 1280.000000"
 preserveAspectRatio="xMidYMid meet">
<g transform="translate(0.000000,1280.000000) scale(0.100000,-0.100000)"
fill="#000000" stroke="none">
<path d="M7770 12660 c-74 -66 -142 -128 -153 -138 -17 -18 -11 -26 223 -292
212 -241 239 -275 228 -291 -7 -9 -84 -79 -171 -155 -87 -76 -156 -144 -155
-150 3 -13 646 -747 658 -752 5 -2 85 65 180 148 153 135 174 150 190 138 10
-7 120 -129 244 -270 125 -142 230 -258 235 -258 14 0 306 261 306 274 0 16
-1622 1860 -1638 1863 -7 1 -73 -51 -147 -117z"/>
<path d="M4621 9807 c-1389 -1222 -2526 -2227 -2528 -2233 -3 -10 1659 -1906
1677 -1912 4 -2 651 563 1437 1254 785 691 1436 1264 1446 1272 25 22 36 7 85
-113 110 -277 183 -564 229 -905 22 -169 25 -705 5 -870 -95 -764 -356 -1375
-772 -1804 -212 -219 -320 -292 -684 -465 l-149 -71 -2428 0 -2429 0 2 -392 3
-393 2623 -3 c2385 -2 2622 -3 2622 -18 0 -9 -92 -446 -205 -972 -113 -527
-240 -1117 -281 -1312 -52 -242 -81 -359 -92 -367 -21 -17 -2152 -19 -2183 -3
-18 10 -19 23 -19 185 0 166 1 175 19 175 11 0 133 -50 273 -110 139 -61 259
-109 266 -108 13 3 180 374 171 381 -2 2 -272 120 -599 262 -327 142 -921 399
-1320 572 -399 173 -730 317 -736 320 -15 5 -180 -375 -168 -387 5 -5 294
-133 643 -284 348 -151 636 -277 639 -281 20 -20 -61 -25 -440 -25 l-418 0 0
-349 c0 -309 -2 -350 -16 -355 -9 -3 -303 -6 -655 -6 l-639 0 0 -245 0 -245
4360 0 4360 0 0 245 0 245 -283 0 c-211 0 -287 3 -300 13 -16 12 -36 103 -577
2627 -99 465 -183 853 -186 863 -4 13 -16 17 -51 17 -29 0 -43 4 -41 11 2 7
46 31 98 54 650 294 1184 860 1489 1578 48 112 156 426 149 432 -2 3 -65 -3
-138 -12 -111 -14 -151 -15 -235 -5 -494 55 -865 455 -865 932 0 379 241 726
602 869 155 61 302 79 484 61 68 -7 127 -10 130 -7 8 8 -57 204 -113 341 -58
144 -177 376 -258 506 -124 197 -308 424 -464 573 -44 42 -81 83 -81 90 0 7
171 164 380 348 209 184 380 337 380 340 0 3 -358 412 -796 910 -438 497 -815
925 -837 952 -22 26 -45 47 -51 47 -6 0 -1147 -1000 -2535 -2223z m2193 -6365
c124 -56 201 -167 200 -291 -1 -83 -26 -143 -88 -209 -139 -148 -383 -143
-521 10 -121 135 -94 349 56 454 98 68 247 83 353 36z"/>
<path d="M8672 7709 c-90 -11 -223 -55 -299 -100 -83 -50 -207 -171 -259 -255
-106 -171 -139 -376 -89 -569 8 -33 36 -103 62 -155 39 -80 61 -109 137 -186
77 -76 106 -98 186 -137 128 -64 226 -87 360 -87 295 0 557 158 684 413 63
125 80 197 80 332 0 133 -17 206 -79 331 -139 284 -457 452 -783 413z"/>
<path d="M1857 7375 c-48 -42 -87 -80 -87 -85 0 -5 88 -108 196 -231 112 -127
192 -225 187 -230 -5 -5 -169 30 -383 81 -205 50 -377 87 -381 83 -11 -11
-200 -796 -193 -802 3 -4 105 -31 227 -61 161 -40 222 -59 224 -70 1 -8 -81
-87 -188 -180 -104 -91 -199 -174 -210 -186 l-19 -21 269 -305 c149 -169 274
-309 279 -312 5 -3 81 57 168 134 88 77 162 140 166 140 11 0 16 -24 48 -243
16 -110 31 -201 33 -204 7 -6 908 64 915 72 4 3 -22 203 -56 443 -34 240 -62
445 -62 455 0 9 6 17 13 17 6 0 108 -111 226 -245 118 -135 219 -245 224 -245
12 0 175 143 176 155 1 10 -1664 1907 -1679 1913 -3 1 -46 -32 -93 -73z"/>
</g>
</svg>
